<svg width="236" height="50" viewBox="0 0 236 50" fill="none" xmlns="http://www.w3.org/2000/svg">
<rect width="236" height="50" rx="10" fill="#7030A0"/>
<path d="M25.314 40.504C23.69 40.504 22.248 40.336 20.988 40C19.728 39.636 18.636 39.146 17.712 38.53C16.788 37.886 16.032 37.186 15.444 36.43C14.856 35.646 14.422 34.82 14.142 33.952L17.544 32.776C17.964 34.008 18.804 35.086 20.064 36.01C21.352 36.906 22.92 37.354 24.768 37.354C27.036 37.354 28.814 36.906 30.102 36.01C31.39 35.114 32.034 33.924 32.034 32.44C32.034 31.068 31.46 29.962 30.312 29.122C29.164 28.254 27.652 27.582 25.776 27.106L22.542 26.266C21.226 25.93 20.008 25.44 18.888 24.796C17.796 24.124 16.914 23.284 16.242 22.276C15.598 21.24 15.276 20.008 15.276 18.58C15.276 15.92 16.13 13.848 17.838 12.364C19.574 10.852 22.066 10.096 25.314 10.096C27.246 10.096 28.912 10.418 30.312 11.062C31.712 11.678 32.846 12.476 33.714 13.456C34.61 14.408 35.24 15.444 35.604 16.564L32.244 17.74C31.712 16.34 30.816 15.248 29.556 14.464C28.296 13.652 26.77 13.246 24.978 13.246C23.102 13.246 21.604 13.708 20.484 14.632C19.392 15.528 18.846 16.76 18.846 18.328C18.846 19.672 19.28 20.708 20.148 21.436C21.016 22.136 22.15 22.654 23.55 22.99L26.784 23.788C29.64 24.46 31.824 25.58 33.336 27.148C34.876 28.688 35.646 30.354 35.646 32.146C35.646 33.686 35.254 35.1 34.47 36.388C33.686 37.648 32.524 38.656 30.984 39.412C29.472 40.14 27.582 40.504 25.314 40.504ZM59.8068 40L66.9048 19H70.3068L63.1668 40H59.8068ZM45.5268 40L52.6248 19H55.7748L48.7608 40H45.5268ZM45.3588 40L38.2188 19H41.6208L48.6348 40H45.3588ZM59.8068 40L52.7928 19H55.9848L62.9988 40H59.8068ZM73.8844 40V19H77.2444V40H73.8844ZM75.6064 14.128C75.0464 14.128 74.5564 13.918 74.1364 13.498C73.7164 13.078 73.5064 12.588 73.5064 12.028C73.5064 11.44 73.7164 10.95 74.1364 10.558C74.5564 10.138 75.0464 9.928 75.6064 9.928C76.1944 9.928 76.6844 10.138 77.0764 10.558C77.4964 10.95 77.7064 11.44 77.7064 12.028C77.7064 12.588 77.4964 13.078 77.0764 13.498C76.6844 13.918 76.1944 14.128 75.6064 14.128ZM83.6461 48.4V19H86.7961L87.0061 22.864V48.4H83.6461ZM94.1041 40.504C92.3401 40.504 90.7861 40.042 89.4421 39.118C88.1261 38.194 87.1041 36.906 86.3761 35.254C85.6481 33.574 85.2841 31.656 85.2841 29.5C85.2841 27.316 85.6481 25.398 86.3761 23.746C87.1041 22.094 88.1261 20.806 89.4421 19.882C90.7861 18.958 92.3401 18.496 94.1041 18.496C95.9801 18.496 97.6321 18.958 99.0601 19.882C100.488 20.806 101.594 22.094 102.378 23.746C103.19 25.398 103.596 27.316 103.596 29.5C103.596 31.656 103.19 33.574 102.378 35.254C101.594 36.906 100.488 38.194 99.0601 39.118C97.6321 40.042 95.9801 40.504 94.1041 40.504ZM93.3481 37.438C94.6641 37.438 95.8261 37.102 96.8341 36.43C97.8701 35.758 98.6821 34.82 99.2701 33.616C99.8861 32.412 100.194 31.04 100.194 29.5C100.194 27.96 99.9001 26.588 99.3121 25.384C98.7521 24.18 97.9541 23.242 96.9181 22.57C95.8821 21.898 94.7061 21.562 93.3901 21.562C92.1581 21.562 91.0521 21.898 90.0721 22.57C89.1201 23.242 88.3641 24.18 87.8041 25.384C87.2721 26.588 87.0061 27.96 87.0061 29.5C87.0061 31.04 87.2721 32.412 87.8041 33.616C88.3641 34.82 89.1201 35.758 90.0721 36.43C91.0241 37.102 92.1161 37.438 93.3481 37.438ZM117.449 40.504C115.405 40.504 113.599 40.042 112.031 39.118C110.463 38.166 109.231 36.864 108.335 35.212C107.467 33.56 107.033 31.656 107.033 29.5C107.033 27.344 107.467 25.44 108.335 23.788C109.231 22.136 110.449 20.848 111.989 19.924C113.557 18.972 115.349 18.496 117.365 18.496C119.325 18.496 121.019 18.986 122.447 19.966C123.875 20.918 124.981 22.262 125.765 23.998C126.549 25.734 126.941 27.778 126.941 30.13H109.595L110.435 29.416C110.435 31.096 110.729 32.538 111.317 33.742C111.933 34.946 112.787 35.87 113.879 36.514C114.971 37.13 116.217 37.438 117.617 37.438C119.101 37.438 120.347 37.088 121.355 36.388C122.391 35.688 123.189 34.764 123.749 33.616L126.647 35.086C126.115 36.178 125.401 37.13 124.505 37.942C123.637 38.754 122.601 39.384 121.397 39.832C120.221 40.28 118.905 40.504 117.449 40.504ZM110.645 27.988L109.763 27.316H124.253L123.371 28.03C123.371 26.686 123.105 25.524 122.573 24.544C122.041 23.564 121.327 22.808 120.431 22.276C119.535 21.744 118.499 21.478 117.323 21.478C116.175 21.478 115.083 21.744 114.047 22.276C113.039 22.808 112.213 23.564 111.569 24.544C110.953 25.496 110.645 26.644 110.645 27.988ZM139.074 40.504C137.03 40.504 135.448 39.972 134.328 38.908C133.208 37.844 132.648 36.346 132.648 34.414V12.448H136.008V34.078C136.008 35.142 136.288 35.968 136.848 36.556C137.436 37.116 138.248 37.396 139.284 37.396C139.62 37.396 139.942 37.354 140.25 37.27C140.586 37.158 141.02 36.906 141.552 36.514L142.854 39.244C142.126 39.72 141.468 40.042 140.88 40.21C140.292 40.406 139.69 40.504 139.074 40.504ZM128.994 21.982V19H142.308V21.982H128.994ZM147.261 40V19H150.621V40H147.261ZM148.983 14.128C148.423 14.128 147.933 13.918 147.513 13.498C147.093 13.078 146.883 12.588 146.883 12.028C146.883 11.44 147.093 10.95 147.513 10.558C147.933 10.138 148.423 9.928 148.983 9.928C149.571 9.928 150.061 10.138 150.453 10.558C150.873 10.95 151.083 11.44 151.083 12.028C151.083 12.588 150.873 13.078 150.453 13.498C150.061 13.918 149.571 14.128 148.983 14.128ZM163.239 40L171.807 19H175.335L166.557 40H163.239ZM163.029 40L154.251 19H157.737L166.305 40H163.029ZM178.843 40V19H182.203V40H178.843ZM180.565 14.128C180.005 14.128 179.515 13.918 179.095 13.498C178.675 13.078 178.465 12.588 178.465 12.028C178.465 11.44 178.675 10.95 179.095 10.558C179.515 10.138 180.005 9.928 180.565 9.928C181.153 9.928 181.643 10.138 182.035 10.558C182.455 10.95 182.665 11.44 182.665 12.028C182.665 12.588 182.455 13.078 182.035 13.498C181.643 13.918 181.153 14.128 180.565 14.128ZM196.291 40.504C194.247 40.504 192.665 39.972 191.545 38.908C190.425 37.844 189.865 36.346 189.865 34.414V12.448H193.225V34.078C193.225 35.142 193.505 35.968 194.065 36.556C194.653 37.116 195.465 37.396 196.501 37.396C196.837 37.396 197.159 37.354 197.467 37.27C197.803 37.158 198.237 36.906 198.769 36.514L200.071 39.244C199.343 39.72 198.685 40.042 198.097 40.21C197.509 40.406 196.907 40.504 196.291 40.504ZM186.211 21.982V19H199.525V21.982H186.211ZM206.158 48.904C205.626 48.904 205.01 48.792 204.31 48.568C203.61 48.372 202.868 48.106 202.084 47.77L203.344 44.956C203.988 45.236 204.548 45.446 205.024 45.586C205.528 45.726 205.92 45.796 206.2 45.796C206.956 45.796 207.572 45.586 208.048 45.166C208.552 44.774 208.972 44.2 209.308 43.444L211.702 37.732L219.472 19H223.084L213.004 42.94C212.472 44.172 211.912 45.236 211.324 46.132C210.764 47.028 210.078 47.714 209.266 48.19C208.454 48.666 207.418 48.904 206.158 48.904ZM210.778 40L201.706 19H205.276L213.088 37.69L214.096 40H210.778Z" fill="white"/>
</svg>
