<svg width="50" height="50" viewBox="0 0 50 50" fill="none" xmlns="http://www.w3.org/2000/svg">
<rect width="50" height="50" rx="10" fill="#7030A0"/>
<path d="M25.314 40.504C23.69 40.504 22.248 40.336 20.988 40C19.728 39.636 18.636 39.146 17.712 38.53C16.788 37.886 16.032 37.186 15.444 36.43C14.856 35.646 14.422 34.82 14.142 33.952L17.544 32.776C17.964 34.008 18.804 35.086 20.064 36.01C21.352 36.906 22.92 37.354 24.768 37.354C27.036 37.354 28.814 36.906 30.102 36.01C31.39 35.114 32.034 33.924 32.034 32.44C32.034 31.068 31.46 29.962 30.312 29.122C29.164 28.254 27.652 27.582 25.776 27.106L22.542 26.266C21.226 25.93 20.008 25.44 18.888 24.796C17.796 24.124 16.914 23.284 16.242 22.276C15.598 21.24 15.276 20.008 15.276 18.58C15.276 15.92 16.13 13.848 17.838 12.364C19.574 10.852 22.066 10.096 25.314 10.096C27.246 10.096 28.912 10.418 30.312 11.062C31.712 11.678 32.846 12.476 33.714 13.456C34.61 14.408 35.24 15.444 35.604 16.564L32.244 17.74C31.712 16.34 30.816 15.248 29.556 14.464C28.296 13.652 26.77 13.246 24.978 13.246C23.102 13.246 21.604 13.708 20.484 14.632C19.392 15.528 18.846 16.76 18.846 18.328C18.846 19.672 19.28 20.708 20.148 21.436C21.016 22.136 22.15 22.654 23.55 22.99L26.784 23.788C29.64 24.46 31.824 25.58 33.336 27.148C34.876 28.688 35.646 30.354 35.646 32.146C35.646 33.686 35.254 35.1 34.47 36.388C33.686 37.648 32.524 38.656 30.984 39.412C29.472 40.14 27.582 40.504 25.314 40.504Z" fill="white"/>
</svg>
